<svg width="47" height="47" viewBox="0 0 47 47" fill="none" xmlns="http://www.w3.org/2000/svg">
<g clip-path="url(#clip0_189_43)">
<path d="M4.24526 35.6621C3.73193 35.6621 3.23415 35.3918 2.96776 34.9116C1.07193 31.4893 0.0666504 27.6004 0.0666504 23.6668C0.0666504 10.8004 10.5336 0.333496 23.4 0.333496C27.1508 0.333496 30.8705 1.24738 34.1586 2.97405C34.8722 3.34933 35.1464 4.23016 34.7711 4.94377C34.3997 5.65738 33.5189 5.9335 32.8014 5.55627C29.9294 4.04738 26.6803 3.25016 23.4 3.25016C12.1416 3.25016 2.98332 12.4085 2.98332 23.6668C2.98332 27.1066 3.86026 30.5054 5.52082 33.4979C5.90971 34.2018 5.65498 35.0904 4.95304 35.4813C4.72748 35.6038 4.48443 35.6621 4.24526 35.6621Z" fill="white"/>
<path d="M23.4 47C19.0775 47 14.86 45.8061 11.2044 43.5486C10.518 43.1266 10.3061 42.2264 10.728 41.5419C11.1519 40.8594 12.0522 40.6436 12.7347 41.0675C15.9314 43.0391 19.62 44.0833 23.4 44.0833C34.6583 44.0833 43.8167 34.925 43.8167 23.6666C43.8167 19.8808 42.7744 16.2 40.8008 13.0228C40.3769 12.3383 40.5889 11.44 41.2714 11.0141C41.9558 10.5864 42.8541 10.8003 43.278 11.4847C45.5394 15.1228 46.7333 19.3364 46.7333 23.6666C46.7333 36.533 36.2664 47 23.4 47Z" fill="white"/>
<path d="M18.0527 22.2086C17.2477 22.2086 16.5944 21.5553 16.5944 20.7503C16.5944 19.6789 15.7233 18.8058 14.6499 18.8058C13.5766 18.8058 12.7055 19.6789 12.7055 20.7503C12.7055 21.5553 12.0522 22.2086 11.2472 22.2086C10.4422 22.2086 9.78882 21.5553 9.78882 20.7503C9.78882 18.0708 11.9685 15.8892 14.6499 15.8892C17.3313 15.8892 19.511 18.0708 19.511 20.7503C19.511 21.5553 18.8577 22.2086 18.0527 22.2086Z" fill="white"/>
<path d="M35.5527 22.2086C34.7477 22.2086 34.0944 21.5553 34.0944 20.7503C34.0944 19.6789 33.2233 18.8058 32.1499 18.8058C31.0766 18.8058 30.2055 19.6789 30.2055 20.7503C30.2055 21.5553 29.5522 22.2086 28.7472 22.2086C27.9422 22.2086 27.2888 21.5553 27.2888 20.7503C27.2888 18.0708 29.4685 15.8892 32.1499 15.8892C34.8313 15.8892 37.011 18.0708 37.011 20.7503C37.011 21.5553 36.3577 22.2086 35.5527 22.2086Z" fill="white"/>
<path d="M23.3999 35.3333C19.1533 35.3333 15.1633 33.6805 12.1611 30.6764C11.5913 30.1067 11.5913 29.183 12.1611 28.6133C12.7308 28.0436 13.6544 28.0436 14.2241 28.6133C16.6741 31.0672 19.933 32.4167 23.3999 32.4167C26.8669 32.4167 30.1258 31.0672 32.5777 28.6153C33.1474 28.0455 34.0711 28.0455 34.6408 28.6153C35.2105 29.185 35.2105 30.1086 34.6408 30.6783C31.6366 33.6805 27.6466 35.3333 23.3999 35.3333Z" fill="white"/>
<path d="M38.9555 15.9591C38.6638 15.9591 38.3722 15.8716 38.1194 15.6966C36.9625 14.8858 31.1777 10.6527 31.1777 6.75024C31.1777 4.2458 33.3108 2.20996 35.9319 2.20996C37.0577 2.20996 38.1194 2.58913 38.9555 3.24246C39.7916 2.58913 40.8533 2.20996 41.9791 2.20996C44.6002 2.20802 46.7333 4.2458 46.7333 6.75024C46.7333 10.6527 40.9486 14.8877 39.7916 15.6966C39.5388 15.8716 39.2472 15.9591 38.9555 15.9591ZM35.9319 5.12468C34.9188 5.12468 34.0944 5.85385 34.0944 6.7483C34.0944 8.30385 36.7525 10.9814 38.9555 12.6886C41.1975 10.958 43.8166 8.32135 43.8166 6.7483C43.8166 5.85385 42.9922 5.12468 41.9791 5.12468C41.2286 5.12468 40.5616 5.51941 40.2797 6.12996C39.8013 7.16052 38.1116 7.16052 37.6333 6.12996C37.3494 5.51941 36.6825 5.12468 35.9319 5.12468Z" fill="white"/>
<path d="M7.84443 47.07C7.55276 47.07 7.26109 46.9825 7.00832 46.8075C5.85137 45.9966 0.0666504 41.7636 0.0666504 37.8611C0.0666504 35.3566 2.19971 33.3208 4.82082 33.3208C5.94665 33.3208 7.00832 33.7 7.84443 34.3533C8.68054 33.7 9.74221 33.3208 10.868 33.3208C13.4892 33.3189 15.6222 35.3566 15.6222 37.8611C15.6222 41.7636 9.83748 45.9986 8.68054 46.8075C8.42776 46.9825 8.1361 47.07 7.84443 47.07ZM4.82082 36.2355C3.80776 36.2355 2.98332 36.9647 2.98332 37.8591C2.98332 39.4147 5.64137 42.0922 7.84443 43.7994C10.0864 42.0689 12.7055 39.4322 12.7055 37.8591C12.7055 36.9647 11.8811 36.2355 10.868 36.2355C10.1175 36.2355 9.45054 36.6302 9.1686 37.2408C8.69026 38.2714 7.00054 38.2714 6.52221 37.2408C6.23832 36.6302 5.57137 36.2355 4.82082 36.2355Z" fill="white"/>
</g>
<defs>
<clipPath id="clip0_189_43">
<rect width="46.6667" height="46.6667" fill="white" transform="translate(0.0666504 0.333496)"/>
</clipPath>
</defs>
</svg>
