<svg width="42" height="39" viewBox="0 0 42 39" fill="none" xmlns="http://www.w3.org/2000/svg">
<g clip-path="url(#clip0_79_755)">
<path d="M41.5 16.4255C41.5 7.50262 32.3039 0.243164 21 0.243164C9.69608 0.243164 0.5 7.50262 0.5 16.4255C0.5 24.4252 7.79384 31.1239 17.6451 32.3911C18.3119 32.5313 19.2207 32.8191 19.4513 33.3742C19.6588 33.8789 19.5858 34.6676 19.5186 35.1779C19.5186 35.1779 19.2784 36.5853 19.2265 36.8844C19.1362 37.389 18.8153 38.8562 21.0019 37.9591C23.1905 37.0619 32.8073 31.1968 37.1076 26.3821C40.0781 23.2121 41.5019 19.9973 41.5019 16.4255H41.5ZM13.7676 21.1973C13.7676 21.4085 13.5928 21.5786 13.3757 21.5786H7.61707C7.39994 21.5786 7.22509 21.4085 7.22509 21.1973V21.1917V12.4949C7.22509 12.2837 7.39994 12.1136 7.61707 12.1136H9.07161C9.28681 12.1136 9.46359 12.2856 9.46359 12.4949V19.403H13.3776C13.5928 19.403 13.7696 19.5749 13.7696 19.7843V21.1991L13.7676 21.1973ZM17.2339 21.1973C17.2339 21.4066 17.0591 21.5786 16.842 21.5786H15.3874C15.1722 21.5786 14.9955 21.4085 14.9955 21.1973V12.4949C14.9955 12.2856 15.1703 12.1136 15.3874 12.1136H16.842C17.0591 12.1136 17.2339 12.2837 17.2339 12.4949V21.1973ZM27.1314 21.1973C27.1314 21.4066 26.9565 21.5786 26.7394 21.5786H25.2944C25.2599 21.5786 25.2253 21.573 25.1926 21.5655C25.1926 21.5655 25.1888 21.5655 25.1868 21.5655C25.1772 21.5636 25.1696 21.5599 25.1599 21.558C25.1561 21.558 25.1523 21.5543 25.1484 21.5543C25.1427 21.5524 25.135 21.5487 25.1292 21.5468C25.1234 21.5431 25.1158 21.5412 25.11 21.5374C25.1061 21.5356 25.1023 21.5337 25.0985 21.5318C25.0908 21.5281 25.0812 21.5225 25.0735 21.5169C25.0735 21.5169 25.0696 21.515 25.0696 21.5131C25.0312 21.487 24.9966 21.4552 24.9678 21.4178L20.8693 16.033V21.201C20.8693 21.4103 20.6945 21.5823 20.4774 21.5823H19.0228C18.8076 21.5823 18.6308 21.4122 18.6308 21.201V12.4986C18.6308 12.2893 18.8057 12.1173 19.0228 12.1173H20.4678C20.4678 12.1173 20.4774 12.1173 20.4812 12.1173C20.4889 12.1173 20.4947 12.1173 20.5023 12.1173C20.51 12.1173 20.5158 12.1173 20.5235 12.1192C20.5292 12.1192 20.535 12.1192 20.5408 12.1211C20.5485 12.1211 20.5561 12.1248 20.5638 12.1267C20.5677 12.1267 20.5734 12.1286 20.5773 12.1304C20.585 12.1323 20.5926 12.136 20.6003 12.1379C20.6042 12.1379 20.608 12.1416 20.6138 12.1416C20.6215 12.1454 20.6292 12.1473 20.6368 12.151C20.6407 12.1529 20.6445 12.1547 20.6484 12.1566C20.6561 12.1603 20.6637 12.1641 20.6695 12.1678C20.6734 12.1697 20.6772 12.1716 20.681 12.1753C20.6887 12.179 20.6945 12.1846 20.7022 12.1884C20.706 12.1902 20.7099 12.194 20.7137 12.1958C20.7214 12.2015 20.7272 12.2071 20.7348 12.2127C20.7368 12.2145 20.7406 12.2164 20.7425 12.2183C20.7502 12.2258 20.7579 12.2332 20.7656 12.2426C20.7656 12.2426 20.7656 12.2426 20.7675 12.2444C20.779 12.2575 20.7886 12.2706 20.7982 12.2837L24.8909 17.661V12.493C24.8909 12.2837 25.0658 12.1117 25.2829 12.1117H26.7375C26.9527 12.1117 27.1294 12.2818 27.1294 12.493V21.1954L27.1314 21.1973ZM35.0708 13.9079C35.0708 14.1191 34.896 14.2892 34.6788 14.2892H30.7648V15.7583H34.6788C34.894 15.7583 35.0708 15.9302 35.0708 16.1396V17.5545C35.0708 17.7657 34.896 17.9358 34.6788 17.9358H30.7648V19.4048H34.6788C34.894 19.4048 35.0708 19.5768 35.0708 19.7861V21.201C35.0708 21.4122 34.896 21.5823 34.6788 21.5823H28.9202C28.7031 21.5823 28.5283 21.4122 28.5283 21.201V21.1954V12.508V12.4986C28.5283 12.2874 28.7031 12.1173 28.9202 12.1173H34.6788C34.894 12.1173 35.0708 12.2893 35.0708 12.4986V13.9135V13.9079Z" fill="white"/>
</g>
<defs>
<clipPath id="clip0_79_755">
<rect width="41" height="38" fill="white" transform="translate(0.5 0.243164)"/>
</clipPath>
</defs>
</svg>
